<svg width="96" height="97" viewBox="0 0 96 97" fill="none" xmlns="http://www.w3.org/2000/svg">
<path d="M95.6313 63.659C95.6313 67.2623 90.8887 69.6645 85.3557 70.8656C81.7988 60.6562 74.6849 52.8489 66.3854 47.4439C67.1758 45.6423 67.9662 44.4412 68.7567 42.6395H71.9184C84.1701 42.0389 95.6313 53.4495 95.6313 63.659ZM27.6543 42.0389H24.4926C12.2409 42.0389 0.779663 53.4495 0.779663 63.659C0.779663 67.2623 5.52224 69.6645 11.0553 70.8656C14.6122 60.6562 21.7261 52.8489 30.0256 47.4439L27.6543 42.0389ZM48.2055 48.0445C56.9002 48.0445 64.0141 37.2345 64.0141 24.0222C64.0141 10.81 56.9002 0 48.2055 0C39.5107 0 32.3969 10.81 32.3969 24.0222C32.3969 37.2345 39.5107 48.0445 48.2055 48.0445ZM48.2055 54.0501C32.0017 54.0501 16.5883 69.6645 16.5883 84.0779C16.5883 96.089 48.2055 96.089 48.2055 96.089C48.2055 96.089 79.8227 96.089 79.8227 84.0779C79.8227 69.6645 64.4093 54.0501 48.2055 54.0501ZM70.7327 36.0334H71.9184C78.637 36.0334 83.7748 28.2261 83.7748 18.0167C83.7748 7.80723 78.637 0 71.9184 0C69.9423 0 68.3615 0.600557 66.7806 1.80167C69.9423 7.80723 71.9184 15.6145 71.9184 24.0222C71.9184 28.2261 71.5232 32.43 70.7327 36.0334ZM24.4926 36.0334H25.6782C24.8878 32.43 24.4926 28.2261 24.4926 24.0222C24.4926 15.6145 26.4686 7.80723 29.6304 1.80167C28.0495 0.600557 26.4686 0 24.4926 0C17.7739 0 12.6361 7.80723 12.6361 18.0167C12.6361 28.2261 17.7739 36.0334 24.4926 36.0334Z" fill="#E06D67"/>
</svg>
