<svg width="96" height="97" viewBox="0 0 96 97" fill="none" xmlns="http://www.w3.org/2000/svg">
<path d="M93.3937 13.8987C92.3871 11.0935 90.7863 8.546 88.7037 6.43539C86.6211 4.32477 84.1075 2.70234 81.3396 1.68226C76.1623 0 71.4592 0 61.895 0H33.2024C23.7173 0 18.9352 0 13.8369 1.60215C11.065 2.62648 8.54884 4.25505 6.46601 6.37285C4.38317 8.49065 2.7845 11.0461 1.78286 13.8586C0.162476 19.0656 0.162476 23.872 0.162476 33.4849V62.604C0.162476 72.257 0.162476 77.0234 1.74334 82.2304C2.74986 85.0355 4.35073 87.583 6.4333 89.6937C8.51586 91.8043 11.0295 93.4267 13.7974 94.4468C18.9352 96.089 23.6778 96.089 33.1629 96.089H61.9346C71.4592 96.089 76.2018 96.089 81.3001 94.4868C84.0793 93.4675 86.6032 91.8411 88.6932 89.7231C90.7831 87.605 92.3878 85.047 93.3937 82.2304C95.014 77.0234 95.014 72.2169 95.014 62.604V33.5651C95.014 23.9121 95.014 19.1056 93.3937 13.8987ZM69.0089 32.4436L65.3334 36.1686C64.9752 36.5062 64.5062 36.6972 64.017 36.7046C63.5279 36.712 63.0534 36.5353 62.6855 36.2086C59.1259 33.162 54.6186 31.488 49.9595 31.4823C46.126 31.4823 42.2924 32.764 42.2924 36.3288C42.2924 39.9336 46.4026 41.1352 51.1452 42.9376C59.4447 45.7414 66.3214 49.2661 66.3214 57.5172C66.3214 66.4893 59.4447 72.6575 48.2206 73.3384L47.193 78.1449C47.1022 78.5866 46.8639 78.9831 46.5184 79.2676C46.1729 79.5521 45.7412 79.7073 45.296 79.707H38.2217L37.866 79.6669C37.3596 79.5518 36.9183 79.2394 36.6373 78.7972C36.3563 78.3551 36.2582 77.8186 36.3642 77.3038L37.4708 72.2169C33.2112 71.1348 29.2939 68.9705 26.0886 65.9285V65.8885C25.9117 65.7098 25.7714 65.4976 25.6756 65.2639C25.5799 65.0302 25.5306 64.7797 25.5306 64.5266C25.5306 64.2736 25.5799 64.023 25.6756 63.7893C25.7714 63.5556 25.9117 63.3434 26.0886 63.1648L30.0407 59.2796C30.3996 58.9389 30.8729 58.7492 31.3647 58.7492C31.8564 58.7492 32.3298 58.9389 32.6887 59.2796C36.2851 62.7242 41.1067 64.6468 46.0864 64.5667C51.2242 64.5667 54.6626 62.3637 54.6626 58.879C54.6626 55.3944 51.1847 54.4731 44.6241 51.9898C37.6684 49.4664 31.0683 45.9016 31.0683 37.5704C31.0683 27.8774 39.0121 23.1511 48.4182 22.7105L49.4062 17.7839C49.4982 17.346 49.7379 16.9544 50.0843 16.6766C50.4306 16.3987 50.8617 16.252 51.3033 16.2618H58.3381L58.7333 16.3019C59.7609 16.5422 60.4327 17.5436 60.1956 18.5849L59.1285 24.0723C62.6855 25.2739 66.0448 27.1565 68.9299 29.6398L69.0089 29.7199C69.7598 30.521 69.7598 31.7226 69.0089 32.4436Z" fill="#E06D67"/>
</svg>
