<svg width="89" height="93" viewBox="0 0 89 93" fill="none" xmlns="http://www.w3.org/2000/svg">
<path d="M80.125 42.2917V25.1667C80.125 22.9566 79.2909 20.8369 77.8063 19.2741C76.3216 17.7113 74.308 16.8334 72.2083 16.8334H56.375V8.50002C56.375 6.28988 55.5409 4.17027 54.0563 2.60746C52.5716 1.04466 50.558 0.166687 48.4583 0.166687H32.625C30.5254 0.166687 28.5117 1.04466 27.0271 2.60746C25.5424 4.17027 24.7083 6.28988 24.7083 8.50002V16.8334H8.87499C6.77536 16.8334 4.76173 17.7113 3.27707 19.2741C1.7924 20.8369 0.958328 22.9566 0.958328 25.1667V71C0.958328 73.2102 1.7924 75.3298 3.27707 76.8926C4.76173 78.4554 6.77536 79.3334 8.87499 79.3334H37.6125C39.7882 82.6782 42.6024 85.5089 45.8756 87.6449C49.1487 89.7808 52.8089 91.1751 56.6226 91.7387C60.4363 92.3024 64.3198 92.023 68.0252 90.9184C71.7305 89.8138 75.1765 87.9083 78.1431 85.3234C81.1098 82.7386 83.5319 79.5311 85.2551 75.9058C86.9782 72.2804 87.9645 68.3167 88.151 64.2677C88.3375 60.2187 87.72 56.1732 86.3381 52.3894C84.9562 48.6055 82.8402 45.1665 80.125 42.2917ZM32.625 8.50002H48.4583V16.8334H32.625V8.50002ZM72.2083 79.3334C68.7825 82.038 64.6157 83.5 60.3333 83.5C56.051 83.5 51.8842 82.038 48.4583 79.3334C45.1352 76.7098 42.6805 73.0522 41.4419 68.8785C40.2033 64.7048 40.2437 60.2268 41.5573 56.0786C42.8709 51.9304 45.3911 48.3225 48.7609 45.7658C52.1308 43.2091 56.1794 41.8334 60.3333 41.8334C64.4873 41.8334 68.5359 43.2091 71.9057 45.7658C75.2756 48.3225 77.7958 51.9304 79.1093 56.0786C80.4229 60.2268 80.4633 64.7048 79.2247 68.8785C77.9862 73.0522 75.5315 76.7098 72.2083 79.3334ZM56.375 50.1667H62.3125V61.9167L71.9708 67.7917L69.0021 73.2084L56.375 65.5417V50.1667Z" fill="#E06D67"/>
</svg>
